<svg xmlns="http://www.w3.org/2000/svg" xmlns:xlink="http://www.w3.org/1999/xlink" version="1.1" width="256" height="256" viewBox="0 0 256 256" xml:space="preserve">

<defs>
</defs>
<g style="stroke: none; stroke-width: 0; stroke-dasharray: none; stroke-linecap: butt; stroke-linejoin: miter; stroke-miterlimit: 10; fill: none; fill-rule: nonzero; opacity: 1;" transform="translate(1.4065934065934016 1.4065934065934016) scale(2.81 2.81)" >
	<path d="M 45 1 c -3.886 0 -7.047 3.161 -7.047 7.047 v 54.748 c 0 3.885 3.161 7.047 7.047 7.047 c 3.885 0 7.047 -3.162 7.047 -7.047 V 8.047 C 52.047 4.161 48.885 1 45 1 z" style="stroke: none; stroke-width: 1; stroke-dasharray: none; stroke-linecap: butt; stroke-linejoin: miter; stroke-miterlimit: 10; fill: rgb(196,57,57); fill-rule: nonzero; opacity: 1;" transform=" matrix(1 0 0 1 0 0) " stroke-linecap="round" />
	<circle cx="44.997" cy="81.957" r="7.047" style="stroke: none; stroke-width: 1; stroke-dasharray: none; stroke-linecap: butt; stroke-linejoin: miter; stroke-miterlimit: 10; fill: rgb(196,57,57); fill-rule: nonzero; opacity: 1;" transform="  matrix(1 0 0 1 0 0) "/>
	<path d="M 45 70.842 c -4.437 0 -8.047 -3.609 -8.047 -8.047 V 8.047 C 36.953 3.61 40.563 0 45 0 c 4.438 0 8.047 3.61 8.047 8.047 v 54.748 C 53.047 67.232 49.438 70.842 45 70.842 z M 45 2 c -3.334 0 -6.047 2.712 -6.047 6.047 v 54.748 c 0 3.334 2.712 6.047 6.047 6.047 c 3.334 0 6.047 -2.713 6.047 -6.047 V 8.047 C 51.047 4.712 48.334 2 45 2 z" style="stroke: none; stroke-width: 1; stroke-dasharray: none; stroke-linecap: butt; stroke-linejoin: miter; stroke-miterlimit: 10; fill: rgb(0,0,0); fill-rule: nonzero; opacity: 1;" transform=" matrix(1 0 0 1 0 0) " stroke-linecap="round" />
	<path d="M 45 90 c -4.437 0 -8.047 -3.609 -8.047 -8.047 s 3.61 -8.047 8.047 -8.047 c 4.438 0 8.047 3.609 8.047 8.047 S 49.438 90 45 90 z M 45 75.906 c -3.334 0 -6.047 2.713 -6.047 6.047 S 41.666 88 45 88 c 3.334 0 6.047 -2.713 6.047 -6.047 S 48.334 75.906 45 75.906 z" style="stroke: none; stroke-width: 1; stroke-dasharray: none; stroke-linecap: butt; stroke-linejoin: miter; stroke-miterlimit: 10; fill: rgb(0,0,0); fill-rule: nonzero; opacity: 1;" transform=" matrix(1 0 0 1 0 0) " stroke-linecap="round" />
</g>
</svg>